<svg xmlns="http://www.w3.org/2000/svg" width="9.73" height="16" viewBox="0 0 9.73 16">
  <g id="Icon_Chevron" data-name="Icon &gt; Chevron" transform="translate(0 16) rotate(-90)">
    <path id="Path_10205" data-name="Path 10205" d="M7.987,9.727a1.025,1.025,0,0,1-.73-.32L.412,2.461A1.607,1.607,0,0,1,.264.5,1.009,1.009,0,0,1,1.872.321L7.987,6.546l6.115-6a1.006,1.006,0,0,1,.84-.3,1.1,1.1,0,0,1,.769.511,1.593,1.593,0,0,1,.284,1.057,1.486,1.486,0,0,1-.443.972L8.706,9.491A.993.993,0,0,1,7.987,9.727Z" fill="#fff"/>
  </g>
</svg>
